<?xml version="1.0" standalone="no"?>
<!DOCTYPE svg PUBLIC "-//W3C//DTD SVG 1.1//EN" "http://www.w3.org/Graphics/SVG/1.1/DTD/svg11.dtd" >
<svg xmlns="http://www.w3.org/2000/svg">
<metadata>
This is a custom SVG webfont generated by Font Squirrel.
Copyright   : Copyright c 199297 HewlettPackard All rights reserved
</metadata>
<defs>
<font id="LetterGothicRegular" horiz-adv-x="1024" >
<font-face units-per-em="2048" ascent="1638" descent="-410" />
<missing-glyph horiz-adv-x="500" />
<glyph unicode=" " />
<glyph unicode="!" d="M407 74q0 43 29.5 72.5t72.5 29.5t72.5 -29.5t29.5 -72.5q0 -42 -29.5 -71.5t-72.5 -29.5t-72.5 29.5t-29.5 71.5zM441 1476h137l-27 -1011h-82z" />
<glyph unicode="&#x22;" d="M275 1475h149l-30 -418h-89zM600 1475h149l-30 -418h-89z" />
<glyph unicode="#" d="M-10 489l16 94h278l56 324h-278l16 94h279l113 651h86l-114 -651h234l114 651h86l-114 -651h270l-16 -94h-270l-57 -324h271l-16 -94h-271l-121 -693h-86l121 693h-234l-121 -693h-86l121 693h-277zM369 583h235l56 324h-234z" />
<glyph unicode="$" d="M153 266l62 62q72 -77 140 -110q56 -24 122 -32v536q-138 52 -210 128q-79 84 -79 204q0 133 96 218q79 70 193 82v151h91v-148q77 -7 141 -34q79 -34 161 -114l-62 -66q-73 71 -138 101q-46 22 -102 28v-481q147 -56 222 -139q80 -90 80 -221q0 -144 -100 -236 q-81 -74 -202 -90v-150h-91v148q-89 7 -158 37q-83 38 -166 126zM279 1061q0 -100 55 -155q44 -42 143 -83v447q-75 -10 -128 -56q-70 -59 -70 -153zM568 190q80 13 136 63q75 66 75 171q0 113 -56 173q-45 48 -155 91v-498z" />
<glyph unicode="%" d="M95 94l752 1326l64 -38l-752 -1326zM146 1206q0 138 54.5 216t150.5 78q97 0 151.5 -78t54.5 -216q0 -137 -54.5 -214.5t-151.5 -77.5q-96 0 -150.5 77.5t-54.5 214.5zM221 1206q0 -104 34.5 -163t95.5 -59q62 0 96.5 59t34.5 163q0 105 -34.5 164.5t-96.5 59.5 q-61 0 -95.5 -59.5t-34.5 -164.5zM434 268q0 138 54.5 216t150.5 78q97 0 151.5 -78t54.5 -216q0 -137 -54.5 -214.5t-151.5 -77.5q-96 0 -150.5 77.5t-54.5 214.5zM509 268q0 -104 34.5 -163t95.5 -59q62 0 96.5 59t34.5 163q0 105 -34.5 164.5t-96.5 59.5 q-61 0 -95.5 -59.5t-34.5 -164.5z" />
<glyph unicode="&#x26;" d="M98 318q0 134 69 255q61 106 195 235l-33 52q-64 100 -91 180.5t-27 169.5q0 121 72 208t172 87q110 0 177 -74t67 -196q0 -118 -60 -223q-51 -91 -167 -202l294 -465l12 74q19 149 12 305h45h46q7 -155 -19 -320q-14 -91 -34 -155l140 -222l-78 -56l-110 174 q-55 -84 -131 -127q-85 -48 -203 -48q-157 0 -252.5 95.5t-95.5 252.5zM191 318q0 -119 69 -189q69 -69 187 -69q97 0 163 35.5t112 112.5l9 15l-322 510q-107 -105 -159 -195q-59 -103 -59 -220zM304 1216q0 -76 24 -146.5t81 -159.5l16 -25q91 88 132 161q49 86 49 183 q0 89 -41 141t-110 52q-63 0 -107 -60q-44 -59 -44 -146z" />
<glyph unicode="'" d="M437 1475h149l-30 -418h-89z" />
<glyph unicode="(" d="M300 674q0 260 95.5 472t278.5 359l53 -63q-165 -132 -250.5 -328t-85.5 -440q0 -245 85.5 -441t250.5 -328l-53 -63q-184 147 -279 360q-95 212 -95 472z" />
<glyph unicode=")" d="M296 -95q165 133 251 328.5t86 439.5q0 245 -86 441t-251 328l53 63q184 -147 280 -360q95 -212 95 -472t-96 -472t-279 -359z" />
<glyph unicode="*" d="M59 1116l41 124l384 -148l-24 410h131l-23 -412l382 149l41 -124l-399 -105l261 -318l-106 -77l-223 347l-222 -346l-106 77l261 319z" />
<glyph unicode="+" d="M69 676v94h396v396h94v-396h396v-94h-396v-396h-94v396h-396z" />
<glyph unicode="," d="M408 -126q54 7 91 58q14 19 23 41h-15q-44 0 -65.5 23t-21.5 70q0 39 26.5 66t65.5 27q41 0 66.5 -28.5t25.5 -74.5q0 -82 -54 -145.5t-142 -84.5v48z" />
<glyph unicode="-" d="M258 513v91h506v-91h-506z" />
<glyph unicode="." d="M419 65q0 39 27 66t66 27t66 -27t27 -66t-27 -65.5t-66 -26.5t-66 26.5t-27 65.5z" />
<glyph unicode="/" d="M164 -30l573 1535h89l-573 -1535h-89z" />
<glyph unicode="0" d="M158 737q1 407 84 587.5t270 180.5q188 0 272 -181q82 -178 82 -577v-10q1 -407 -82.5 -587t-271.5 -180q-187 0 -270 180t-84 587zM254 737q1 -363 61.5 -523.5t196.5 -160.5q137 0 198 160.5t60 523.5q1 363 -60 524t-198 161q-136 0 -196.5 -161t-61.5 -524z" />
<glyph unicode="1" d="M192 1304v81l392 120v-1422h282v-83h-327h-328v83h282v1303z" />
<glyph unicode="2" d="M124 0v37v38q0 162 95.5 307.5t319.5 325.5q155 124 221 225t66 213q0 124 -75 200t-198 76q-131 0 -210 -85.5t-84 -230.5h-96q6 184 112 291.5t282 107.5q164 0 265 -98q100 -97 100 -256q0 -138 -81 -261.5t-271 -275.5q-191 -153 -272 -277q-74 -115 -82 -243h706 v-94h-798z" />
<glyph unicode="3" d="M110 400h93q-10 -160 73 -253.5t234 -93.5q132 0 220 96t88 240q0 159 -81.5 248.5t-226.5 89.5h-39v82q132 6 219.5 93t87.5 213q0 138 -72 222.5t-190 84.5q-122 0 -193 -73t-69 -197h-96q-2 162 94.5 257.5t263.5 95.5q161 0 259.5 -107t98.5 -283q0 -167 -99 -274 q-35 -39 -80 -65q65 -28 113 -78q106 -111 106 -309q0 -180 -114.5 -299.5t-287.5 -119.5q-197 0 -305.5 116t-96.5 314z" />
<glyph unicode="4" d="M60 391v33v34l545 1046h71h72v-1027h206v-86h-206v-391h-91v391h-597zM162 477h495v977z" />
<glyph unicode="5" d="M108 301h93q15 -122 88 -185t198 -63q145 0 241 109t96 274q0 180 -82.5 282t-229.5 102q-81 0 -158 -45t-113 -113l-93 15l60 798h631v-89h-544l-43 -577q16 16 34 26q104 68 228 68q191 0 299 -124q107 -124 107 -343q0 -200 -125 -333t-314 -133q-159 0 -256 86 t-117 245z" />
<glyph unicode="6" d="M124 590q0 412 153 664q152 251 400 251q60 0 116 -18t85 -47l-45 -79q-29 29 -73 45.5t-93 16.5q-202 0 -325 -229q-97 -183 -117 -458q25 37 54 66q112 112 286 112q162 0 261.5 -122t99.5 -322q0 -225 -110.5 -362.5t-290.5 -137.5q-197 0 -299 158t-102 462zM229 465 q0 -185 82.5 -298.5t217.5 -113.5t218 113.5t83 298.5q0 165 -74.5 265.5t-196.5 100.5q-139 0 -235 -106q-95 -106 -95 -260z" />
<glyph unicode="7" d="M120 1394v81h763l-560 -1475h-97l541 1394h-647z" />
<glyph unicode="8" d="M106 384q0 195 108 305q50 52 119 79q-47 29 -86 68q-100 106 -100 280q0 175 100.5 282t264.5 107t264.5 -107t100.5 -282q0 -174 -101 -281q-38 -41 -87 -66q73 -28 122 -80q107 -110 107 -305t-107.5 -304.5t-298.5 -109.5t-298.5 109.5t-107.5 304.5zM202 390 q0 -152 85 -244.5t225 -92.5t225 92.5t85 244.5q0 153 -85 246t-225 93t-225 -93t-85 -246zM243 1114q0 -138 74 -223q74 -84 195 -84t195 84.5t74 222.5q0 139 -74 223.5t-195 84.5t-195 -84.5t-74 -223.5z" />
<glyph unicode="9" d="M110 1004q0 225 110.5 362.5t290.5 137.5q197 0 299 -158t102 -462q0 -412 -153 -664q-152 -251 -400 -251q-60 0 -116 18t-85 47l45 79q29 -29 73 -45.5t93 -16.5q202 0 325 229q97 183 117 458q-25 -37 -54 -66q-112 -112 -286 -112q-155 0 -258 126.5t-103 317.5z M206 1009q0 -165 74.5 -265.5t196.5 -100.5q139 0 235 106q95 106 95 260q0 202 -76.5 307t-223.5 105q-135 0 -218 -113.5t-83 -298.5z" />
<glyph unicode=":" d="M419 65q0 39 27 66t66 27t66 -27t27 -66t-27 -65.5t-66 -26.5t-66 26.5t-27 65.5zM419 871q0 39 27 66t66 27t66 -27t27 -66t-27 -65.5t-66 -26.5t-66 26.5t-27 65.5z" />
<glyph unicode=";" d="M408 -126q54 7 91 58q14 19 23 41h-15q-44 0 -65.5 23t-21.5 70q0 39 26.5 66t65.5 27q41 0 66.5 -28.5t25.5 -74.5q0 -82 -54 -145.5t-142 -84.5v48zM421 871q0 39 27 66t66 27t66 -27t27 -66t-27 -65.5t-66 -26.5t-66 26.5t-27 65.5z" />
<glyph unicode="&#x3c;" d="M72 679v44v44l880 406v-92l-778 -357l778 -359v-92z" />
<glyph unicode="=" d="M72 538v94h880v-94h-880zM72 815v94h880v-94h-880z" />
<glyph unicode="&#x3e;" d="M72 273v92l778 359l-778 357v92l880 -406v-44v-44z" />
<glyph unicode="?" d="M114 1195q-2 140 90.5 225t246.5 85q148 0 242.5 -95t94.5 -245q0 -107 -43 -184.5t-155 -169.5q-58 -48 -75 -79.5t-17 -89.5v-177h-94v207q0 60 29.5 109t98.5 102q87 68 125 133.5t38 148.5q0 113 -69 185q-68 72 -175 72q-112 0 -179 -62.5t-65 -164.5h-93zM344 79 q0 45 31 75.5t76 30.5t76 -30.5t31 -75.5t-31 -75.5t-76 -30.5t-76 30.5t-31 75.5z" />
<glyph unicode="@" d="M60 735q1 405 101.5 584.5t326.5 179.5q227 0 327.5 -157t101.5 -511v-144q0 -84 12.5 -170t34.5 -155l-92 -14l-22 108l-24 -35q-74 -93 -194 -93q-131 0 -199 92.5t-68 270.5q0 164 79 264.5t209 100.5q64 0 128 -34l35 -22q-15 181 -72 278q-80 137 -260 137 q-177 0 -255.5 -159.5t-79.5 -518.5t76.5 -518.5t252.5 -159.5q35 0 76 10t65 24l49 -83q-28 -17 -81 -28.5t-101 -11.5q-226 0 -326.5 180t-99.5 585zM461 691q0 -151 41.5 -215.5t139.5 -64.5q81 0 131 69.5t50 183.5v225q-27 37 -77.5 60.5t-103.5 23.5q-81 0 -131 -77.5 t-50 -204.5z" />
<glyph unicode="A" d="M18 0l421 1475h74h75l420 -1475h-50h-50l-128 449h-536l-126 -449h-50h-50zM268 532h490l-246 857z" />
<glyph unicode="B" d="M144 0v1475h48h246q208 0 321 -96t113 -273t-113 -273q-40 -34 -92 -55q81 -26 138 -76q122 -105 122 -299q0 -193 -114 -298t-325 -105h-296h-48zM240 83h248q165 0 254 83t89 237q0 155 -97 238.5t-276 83.5h-218v-642zM240 808h198q162 0 250 75.5t88 215.5 q0 141 -88 217t-250 76h-198v-584z" />
<glyph unicode="C" d="M107 737q0 369 116.5 568.5t330.5 199.5q153 0 249 -85t101 -225h-96q-3 102 -73 164.5t-181 62.5q-168 0 -259.5 -178t-91.5 -507q1 -349 86.5 -516.5t264.5 -167.5q122 0 198 76q75 74 75 190v6h93v-8q0 -147 -102 -246q-104 -101 -264 -101q-223 0 -334.5 191.5 t-112.5 575.5z" />
<glyph unicode="D" d="M135 0v1475h48h285q251 0 358 -170q105 -167 105 -561v-7v-7q1 -392 -111 -560q-112 -170 -378 -170h-259h-48zM231 83h211q218 0 306 147q88 145 87 499v8v8q0 353 -85 499q-86 148 -296 148h-223v-1309z" />
<glyph unicode="E" d="M179 0v1475h715v-41v-42h-619v-595h441v-41v-42h-441v-631h630v-41v-42h-726z" />
<glyph unicode="F" d="M176 0v1475h746v-41v-42h-650v-584h485v-41v-42h-485v-725h-48h-48z" />
<glyph unicode="G" d="M69 737q1 384 117 576t349 192q165 0 272 -103.5t110 -265.5h-96q-2 126 -81.5 206t-203.5 80q-185 0 -278 -171.5t-93 -513.5t78.5 -513t233.5 -171q196 0 283 161q25 46 41 106q8 32 14 83.5t6 94.5v127h-344v83h440v-738h-96v183q-111 -182 -333 -183 q-209 0 -313.5 191.5t-105.5 575.5z" />
<glyph unicode="H" d="M128 0v1475h48h48v-678h576v678h48h48v-1475h-48h-48v714h-576v-714h-48h-48z" />
<glyph unicode="I" d="M262 0v83h203v1309h-203v83h251h251v-83h-203v-1309h203v-83h-251h-251z" />
<glyph unicode="J" d="M65 501h93q-1 -26 -1 -51q0 -202 59 -294q66 -103 229 -103q142 0 212.5 90.5t70.5 271.5v977h-276v83h186h186v-1060q0 -214 -94 -329.5t-267 -115.5q-224 0 -315 122q-84 111 -84 359q0 24 1 50z" />
<glyph unicode="K" d="M150 0v1475h48h48v-658l538 658h56h57l-564 -693l656 -782h-60h-61l-622 745v-745h-48h-48z" />
<glyph unicode="L" d="M159 0v1475h48h48v-1392h639v-41v-42h-735z" />
<glyph unicode="M" d="M92 0v1475h51h52l318 -766l312 766h53h53v-1475h-48h-48v1267l-301 -736h-22h-22l-302 727v-1258h-48h-48z" />
<glyph unicode="N" d="M148 0v1475h57h58l521 -1275v1275h48h48v-1475h-55h-56l-525 1285v-1285h-48h-48z" />
<glyph unicode="O" d="M81 737q1 415 100 591.5t331 176.5q233 0 333 -177q98 -171 98 -575v-8v-8v-8q-1 -409 -99 -583q-100 -176 -332 -176t-331 176.5t-100 590.5zM177 737q1 -369 78 -526.5t257 -157.5q180 -1 258 157q77 155 77 518v9.5v8.5q-1 362 -77 518q-78 158 -258 158t-257 -157.5 t-78 -527.5z" />
<glyph unicode="P" d="M183 0v1475h48h251q210 0 319 -111.5t109 -326.5q0 -214 -109 -325t-319 -111h-203v-601h-48h-48zM279 684h199q172 0 255 86.5t83 266.5q0 181 -83 268t-255 87h-199v-708z" />
<glyph unicode="Q" d="M84 737q1 399 104 583.5t327 184.5q225 0 329 -185q102 -182 102 -575v-8v-8q0 -393 -103 -575q-29 -51 -68 -89l171 -272h-108l-139 217q-78 -40 -184 -40q-224 0 -327 184t-104 583zM180 737q1 -369 78 -526.5t257 -157.5q181 0 259 157q76 156 76 518v9v9 q0 363 -76 518q-78 158 -259 158q-180 0 -257 -157.5t-78 -527.5z" />
<glyph unicode="R" d="M145 0v1475h48h279q199 0 303 -99.5t104 -291.5q0 -202 -117 -321q-68 -68 -165 -99l390 -664h-56h-56l-379 646l-49 -1h-206v-645h-48h-48zM241 728h201q165 0 254 91.5t89 259.5q0 160 -84 236.5t-259 76.5h-201v-664z" />
<glyph unicode="S" d="M75 192l67 57q99 -106 179 -151t169 -45q142 0 232.5 87.5t90.5 224.5q0 101 -65 172t-266 190q-223 131 -295 215q-71 83 -71 210q0 155 105.5 254t271.5 99q105 0 192 -40.5t186 -136.5l-62 -66q-89 86 -161.5 123t-154.5 37q-126 0 -206 -74t-80 -190q0 -96 64 -165 q63 -68 259 -184q227 -134 301 -220q73 -85 73 -218q0 -176 -116 -288.5t-298 -112.5q-112 0 -207.5 51t-207.5 171z" />
<glyph unicode="T" d="M48 1392v41v42h936v-41v-42h-420v-1392h-48h-48v1392h-420z" />
<glyph unicode="U" d="M128 431v1044h48h48v-1048q0 -172 78 -273t210 -101q147 0 217.5 91.5t70.5 282.5v1048h48h48v-1044q0 -226 -98 -343.5t-286 -117.5q-180 0 -282 122t-102 339z" />
<glyph unicode="V" d="M112 1475h49h50l303 -1369l300 1369h49h49l-325 -1475h-74h-75z" />
<glyph unicode="W" d="M68 1475h42h42l86 -1371l245 811h29h30l244 -799l88 1359h39h40l-96 -1475h-63h-63l-219 719l-218 -719h-67h-67z" />
<glyph unicode="X" d="M126 1475h50h51l283 -626l281 626h51h51l-332 -739l334 -736h-50h-51l-284 627l-281 -627h-51h-51l333 740z" />
<glyph unicode="Y" d="M100 1475h50h50l313 -736l314 736h48h49l-364 -836v-639h-48h-48v635z" />
<glyph unicode="Z" d="M121 0v44v45l641 1297l3 6h-620v41v42h719v-44v-45l-641 -1297l-3 -6h692v-41v-42h-791z" />
<glyph unicode="[" d="M266 -227v1702h541v-81h-450v-1540h450v-81h-541z" />
<glyph unicode="\" d="M146 1505h89l573 -1535h-89z" />
<glyph unicode="]" d="M212 -146h450v1540h-450v81h541v-1702h-541v81z" />
<glyph unicode="^" d="M101 993v94q139 102 214 196q76 95 145 253h53h53q69 -158 144 -252q76 -95 216 -197v-94q-232 105 -368 219l-46 41l-44 -40q-136 -114 -367 -220z" />
<glyph unicode="_" d="M0 -409h1024v-105h-1024v105z" />
<glyph unicode="`" d="M289 1451l68 87l319 -271l-45 -58z" />
<glyph unicode="a" d="M127 338q0 167 89.5 268.5t236.5 101.5q157 0 248 -54l5 -3v88q0 155 -52 226.5t-165 71.5q-65 0 -130 -18t-116 -50l-36 75q56 36 134.5 56t161.5 20q149 0 223 -95t74 -286v-429q0 -85 12.5 -171t34.5 -154l-92 -14l-35 169q-39 -49 -85 -87q-101 -83 -200 -83 q-136 0 -222 103t-86 265zM223 338q0 -125 61.5 -205t157.5 -80q76 0 156 69q62 54 108 131v308q-21 14 -57 28q-89 36 -171 36q-115 0 -185 -79t-70 -208z" />
<glyph unicode="b" d="M104 -15q22 68 34.5 154t12.5 171v1209h47h47v-485q113 86 260 86q186 0 303.5 -161.5t117.5 -414.5q0 -258 -115.5 -416t-305.5 -158q-163 0 -274 168l-35 -167zM245 277l16 -31q99 -193 254 -193q142 0 228.5 135t86.5 356q0 217 -94 355t-241 138q-123 0 -215 -76 l-35 -32v-652z" />
<glyph unicode="c" d="M101 544q0 271 118 423.5t327 152.5q118 0 214.5 -60t150.5 -166l-80 -52q-47 92 -121 143.5t-160 51.5q-169 0 -261 -128t-92 -365q0 -236 92 -363.5t261 -127.5q69 0 147 44t147 123l67 -67q-76 -86 -172.5 -134.5t-192.5 -48.5q-209 0 -327 152t-118 422z" />
<glyph unicode="d" d="M94 544q0 259 121 417.5t319 158.5q144 0 244 -83v482h47h47v-1034q0 -174 10 -286.5t34 -213.5l-46 -5l-47 -5q-18 66 -29 164l-21 -26q-122 -143 -270 -143q-180 0 -294.5 160.5t-114.5 413.5zM190 544q0 -216 90 -353.5t232 -137.5q113 0 209 124q32 41 57 89v653 q-3 8 -10 14q-94 104 -242 104q-151 0 -243.5 -135.5t-92.5 -357.5z" />
<glyph unicode="e" d="M105 544q0 271 113.5 423.5t314.5 152.5q187 0 291.5 -152.5t104.5 -423.5v-19h-728q3 -222 89 -347t247 -125q84 0 160.5 33t128.5 91l70 -46q-67 -76 -162 -118.5t-197 -42.5q-203 0 -317.5 152t-114.5 422zM202 606h629q-8 193 -77 303q-79 128 -225 128 q-157 0 -243 -128q-72 -110 -84 -303z" />
<glyph unicode="f" d="M151 1007v83h277v85q0 151 85 240t230 89q80 0 148.5 -20t108.5 -56v-84q-41 36 -109 56.5t-148 20.5q-106 0 -163.5 -64t-57.5 -182v-85h350v-83h-350v-1007h-47h-47v1007h-277z" />
<glyph unicode="g" d="M80 612q0 229 112.5 368.5t296.5 139.5q157 -1 301 -138l32 123h94q-22 -69 -34.5 -155t-12.5 -170v-676q0 -206 -106.5 -327t-288.5 -121q-89 0 -172.5 37.5t-142.5 104.5l61 61q50 -56 113.5 -88t126.5 -32q151 0 233 95t82 270v132l-6 -5q-137 -126 -315 -126 q-165 0 -269.5 142t-104.5 365zM176 612q0 -187 83 -306q82 -118 211 -118q144 0 256 107q27 26 49 55v516q-14 19 -32 36q-135 135 -280 135q-129 0 -208 -117t-79 -308z" />
<glyph unicode="h" d="M149 0v1519h47h47v-648l45 66q136 179 318 179q135 0 197 -85.5t62 -271.5v-759h-47h-47v745q0 153 -39 220t-127 67q-152 0 -257 -149t-105 -365v-518h-47h-47z" />
<glyph unicode="i" d="M183 1007v83h218h218v-1090h-47h-47v1007h-342zM476 1379q0 32 22.5 54.5t54.5 22.5t54.5 -22.5t22.5 -54.5t-22.5 -54.5t-54.5 -22.5t-54.5 22.5t-22.5 54.5z" />
<glyph unicode="j" d="M119 14v40h89v-41q0 -132 56 -200t164 -68q124 0 179 70.5t55 229.5v962h-328v83h211h211v-1084q0 -162 -87 -253t-241 -91q-146 0 -227.5 93t-81.5 259zM613 1379q0 32 22.5 54.5t54.5 22.5t54.5 -22.5t22.5 -54.5t-22.5 -54.5t-54.5 -22.5t-54.5 22.5t-22.5 54.5z" />
<glyph unicode="k" d="M158 0v1519h47h47v-856l458 427h61h61l-510 -481l569 -609h-65h-65l-509 548v-548h-47h-47z" />
<glyph unicode="l" d="M187 1436v83h205h205v-1519h-47h-47v1436h-316z" />
<glyph unicode="m" d="M28 1090h46h46q16 -34 28 -104q31 39 76 71q80 59 148 59q100 0 146 -63q18 -24 27 -58q30 37 69 64q81 57 167 57q93 0 136 -59t43 -188v-869h-47h-47v856q0 94 -24 135t-78 41q-58 0 -114 -43t-87 -111v-878h-47h-47v856q0 99 -22.5 137.5t-79.5 38.5q-53 0 -111.5 -42 t-89.5 -103v-887h-47h-47v790q0 101 -10 168.5t-34 131.5z" />
<glyph unicode="n" d="M115 1090h46h46q23 -82 32 -195l4 -64q24 49 58 94q139 191 325 191q130 0 190 -82.5t60 -262.5v-771h-47h-47v757q0 146 -37 210.5t-122 64.5q-155 0 -262.5 -160.5t-107.5 -392.5v-479h-47h-47v590q0 173 -10 285.5t-34 214.5z" />
<glyph unicode="o" d="M102 544q0 271 109 423.5t301 152.5q193 0 301.5 -152.5t108.5 -423.5q0 -270 -108.5 -422t-301.5 -152q-192 0 -301 152t-109 422zM198 544q0 -236 81.5 -363.5t232.5 -127.5t232.5 127.5t81.5 363.5q0 237 -81.5 365t-232.5 128t-232.5 -128t-81.5 -365z" />
<glyph unicode="p" d="M109 1090l48 3l49 4q18 -63 27 -144l21 27q116 140 254 140q187 0 305 -161.5t118 -414.5q0 -258 -116 -416t-307 -158q-153 0 -261 92v-490h-47h-47v1168q0 91 -10 169.5t-34 180.5zM247 175l10 -12q94 -110 241 -110q152 0 244.5 135t92.5 356q0 217 -94.5 355 t-242.5 138q-107 0 -199 -122q-27 -37 -52 -80v-660z" />
<glyph unicode="q" d="M92 544q0 259 121 417.5t318 158.5q161 0 266 -154l25 120l92 -14q-22 -69 -34.5 -155t-12.5 -170v-1175h-47h-47v478q-106 -78 -251 -80q-189 0 -309.5 160.5t-120.5 413.5zM188 544q0 -216 97.5 -353.5t250.5 -137.5q101 0 201 76l36 31v693l-9 16q-93 168 -241 168 q-151 0 -243 -135.5t-92 -357.5z" />
<glyph unicode="r" d="M191 1090h46h46q23 -83 32 -195l4 -62q26 48 64 95q146 188 296 188q124 0 180.5 -78t57.5 -242h-94q-3 120 -36 178t-112 58q-121 0 -233.5 -157.5t-112.5 -327.5v-547h-47h-47v590q0 173 -10 285.5t-34 214.5z" />
<glyph unicode="s" d="M116 153l56 67q89 -79 183.5 -123t173.5 -44q98 0 160.5 60t62.5 154q0 86 -61 144q-61 57 -214 115q-169 63 -237 134q-67 70 -67 182q0 122 94.5 200t243.5 78q83 0 162.5 -31t138.5 -86l-41 -81q-57 54 -126 84.5t-134 30.5q-108 0 -177 -53.5t-69 -137.5 q0 -80 54 -133q53 -52 188 -103q185 -70 259 -146q74 -75 74 -193q0 -132 -87 -216.5t-224 -84.5q-97 0 -206.5 48.5t-206.5 134.5z" />
<glyph unicode="t" d="M65 1007v83h245v338h94v-338h391v-83h-391v-742q0 -106 41 -159t122 -53q91 0 159 50.5t99 139.5l79 -25q-40 -117 -130.5 -182.5t-211.5 -65.5t-186.5 76.5t-65.5 218.5v742h-245z" />
<glyph unicode="u" d="M147 354v736h47h47v-744q0 -156 37 -224t122 -68q155 0 262.5 153.5t107.5 375.5v507h47h47v-590q0 -174 10 -286.5t34 -213.5h-46h-46q-23 84 -32 197l-4 56q-26 -51 -60 -99q-132 -184 -308 -184q-138 0 -201.5 92t-63.5 292z" />
<glyph unicode="v" d="M119 1090h49h50l293 -941l294 941h49h50l-341 -1090h-52h-52z" />
<glyph unicode="w" d="M14 1090h45h45l162 -927l192 655h52h52l191 -662l163 934h44h44l-190 -1090h-52h-52l-199 691l-203 -691h-52h-52z" />
<glyph unicode="x" d="M85 0l416 601l-328 489h50h50l277 -419l289 419h50h51l-341 -494l396 -596h-48h-48l-351 526l-362 -526h-50h-51z" />
<glyph unicode="y" d="M-33 -139l82 46q23 -90 59.5 -131.5t95.5 -41.5t105 40.5t86 128.5l89 235l-347 952h50h50l298 -820l308 820h50h51l-447 -1187q-63 -139 -128.5 -195.5t-162.5 -56.5q-99 0 -156 50t-83 160z" />
<glyph unicode="z" d="M111 0v44v45l646 912l6 8h-596v40v41h706v-44v-45l-646 -912l-6 -8h693v-40v-41h-803z" />
<glyph unicode="{" d="M254 491v108q112 36 149 111t37 263v266q0 183 66.5 254.5t236.5 71.5v-79q-125 0 -170 -52t-45 -195v-266q0 -223 -58 -322q-35 -62 -112 -106q77 -44 112 -106q58 -99 58 -322v-266q0 -143 45 -195t170 -52v-79q-170 0 -236.5 71.5t-66.5 254.5v266q0 188 -37 263 t-149 111z" />
<glyph unicode="|" d="M460 -512v2047h104v-2047h-104z" />
<glyph unicode="}" d="M254 -396q125 0 170 52t45 195v266q0 223 58 322q35 62 112 106q-77 44 -112 106q-58 99 -58 322v266q0 143 -45 195t-170 52v79q170 0 236.5 -71.5t66.5 -254.5v-266q0 -188 37 -263t149 -111v-108q-112 -36 -149 -111t-37 -263v-266q0 -183 -67 -255q-66 -71 -236 -71 v79z" />
<glyph unicode="~" d="M38 666q57 71 124 109.5t133 38.5q43 0 105.5 -15.5t129.5 -43.5q78 -32 124 -44.5t90 -12.5q51 0 98 23.5t87 68.5l57 -63q-34 -54 -107.5 -90t-149.5 -36q-50 0 -99.5 13.5t-135.5 50.5q-62 27 -109.5 39.5t-85.5 12.5q-52 0 -103 -28.5t-101 -85.5z" />
<glyph unicode="&#xa0;" />
<glyph unicode="&#xa1;" d="M407 1004q0 42 29.5 71.5t72.5 29.5t72.5 -29.5t29.5 -71.5q0 -43 -29.5 -72.5t-72.5 -29.5t-72.5 29.5t-29.5 72.5zM440 -398l27 1026h82l28 -1026h-137z" />
<glyph unicode="&#xa2;" d="M142 735q0 222 111 347q95 107 252 123v296h93v-294q88 -11 163 -55q91 -55 140 -152l-76 -49q-48 95 -108 134q-46 31 -119 38v-774q55 6 102 33q63 35 139 121l62 -62q-86 -97 -163 -137q-61 -32 -140 -39v-295h-93v296q-157 16 -253 123q-110 125 -110 346zM238 735 q0 -186 84 -287q67 -81 183 -97v-2v771q-115 -15 -183 -97q-84 -101 -84 -288z" />
<glyph unicode="&#xa3;" d="M78 696v83h236l-9 25q-49 160 -59.5 210.5t-10.5 129.5q0 159 100 260t258 101q126 0 215 -55.5t142 -166.5l-84 -34q-39 83 -109 128t-161 45q-113 0 -191.5 -78.5t-78.5 -192.5q0 -66 10.5 -113.5t58.5 -205.5l15 -53h382v-83h-357l20 -76q10 -50 10 -128 q0 -114 -48 -225q-37 -87 -114 -193l52 23q79 32 152 32q50 0 89.5 -9t93.5 -32q48 -20 75 -28t50 -8q50 0 77.5 44.5t17.5 109.5h95q10 -111 -42 -173.5t-154 -62.5q-19 0 -52 9t-99 33q-56 20 -93.5 27.5t-80.5 7.5q-42 0 -110.5 -22.5t-124.5 -54.5l-70 67 q105 136 150 239t45 209q0 66 -11 114q-5 30 -27 97h-258z" />
<glyph unicode="&#xa4;" d="M28 312l138 138q-97 121 -99 286q1 164 99 287l-138 138l61 61l138 -138q121 98 286 99q165 0 285 -101l140 140l61 -61l-138 -138q98 -121 99 -287q0 -163 -100 -285l139 -139l-61 -61l-138 138q-122 -98 -287 -99q-165 1 -285 100l-139 -139zM165 736q0 -146 101 -247 t247 -101q147 0 248 101t101 247q0 147 -101 248t-248 101q-146 0 -247 -101t-101 -248z" />
<glyph unicode="&#xa5;" d="M100 1475h50h50l316 -749l311 749h48h49l-256 -593h202v-83h-238l-40 -94h278v-83h-312v-622h-45h-46v622h-313v83h282l-41 94h-241v83h205z" />
<glyph unicode="&#xa6;" d="M460 457h104v-915h-104v915zM460 560v915h104v-915h-104z" />
<glyph unicode="&#xa7;" d="M134 844q0 129 100 202q18 14 41 25l-5 6q-61 73 -61 165q0 124 81 194q80 69 222 69q152 0 225 -77t78 -243h-91q-4 128 -52.5 182.5t-159.5 54.5q-95 0 -153.5 -47.5t-58.5 -125.5q0 -63 57 -125.5t220 -181.5q191 -138 252 -213t61 -171q0 -129 -100 -202 q-19 -14 -42 -26l6 -7q61 -73 61 -163q0 -124 -80.5 -193.5t-222.5 -69.5q-149 0 -223.5 78.5t-79.5 242.5h91q4 -129 52.5 -183.5t159.5 -54.5q95 0 153.5 47.5t58.5 125.5q0 61 -57 124t-221 182q-190 138 -251 213t-61 172zM225 855q0 -70 57 -135.5t220 -184.5 q116 -84 184 -144l34 18q79 52 79 138q0 69 -57 134.5t-221 184.5q-116 85 -184 144q-18 -6 -33 -17q-79 -52 -79 -138z" />
<glyph unicode="&#xa8;" d="M287 1336q0 34 23 57t57 23t57 -23t23 -57q0 -33 -23 -56t-57 -23t-57 23t-23 56zM594 1336q0 34 23 57t57 23t57 -23t23 -57q0 -33 -23 -56t-57 -23t-57 23t-23 56z" />
<glyph unicode="&#xa9;" d="M83 1051q0 201 138.5 339.5t338.5 138.5q201 0 339.5 -138.5t138.5 -339.5q0 -200 -138.5 -338.5t-339.5 -138.5q-200 0 -338.5 138.5t-138.5 338.5zM148 1051q0 -173 119.5 -292.5t292.5 -119.5t293 119.5t120 292.5t-120 293t-293 120t-292.5 -120t-119.5 -293z M331 1060q0 116 75.5 195.5t184.5 79.5q58 0 114.5 -22t79.5 -54l-58 -62q-19 26 -58.5 44.5t-77.5 18.5q-78 0 -131.5 -58t-53.5 -142t54.5 -141.5t133.5 -57.5q37 0 77 19.5t61 47.5l58 -62q-24 -34 -81 -57t-115 -23q-110 0 -186.5 79.5t-76.5 194.5z" />
<glyph unicode="&#xaa;" d="M252 1042q0 106 60.5 166t168.5 60q80 1 128 -25v39q0 79 -30.5 115t-97.5 36q-42 0 -83.5 -11.5t-72.5 -31.5l-21 65q37 24 84 37t93 13q104 0 155.5 -55.5t51.5 -167.5v-301q0 -27 7.5 -66.5t21.5 -81.5l-78 -12l-17 82l-40 -35q-66 -50 -133 -50q-91 0 -144 60.5 t-53 163.5zM331 1043q0 -75 29.5 -115.5t84.5 -40.5q48 0 104 41q37 27 60 59v179l-35 15q-53 19 -92 19q-71 0 -111 -41.5t-40 -115.5z" />
<glyph unicode="&#xab;" d="M18 554l528 508l55 -59l-469 -451l469 -448l-55 -59zM435 554l528 508l55 -59l-469 -451l469 -448l-55 -59z" />
<glyph unicode="&#xac;" d="M72 883v94h880v-494h-94v400h-786z" />
<glyph unicode="&#xad;" d="M258 513v91h506v-91h-506z" />
<glyph unicode="&#xae;" d="M83 1046q0 201 138.5 339.5t338.5 138.5q201 0 339.5 -138.5t138.5 -339.5q0 -200 -138.5 -338.5t-339.5 -138.5q-200 0 -338.5 138.5t-138.5 338.5zM148 1046q0 -173 119.5 -292.5t292.5 -119.5t293 119.5t120 292.5t-120 293t-293 120t-292.5 -120t-119.5 -293z M393 807v506h187q62 0 104.5 -42.5t42.5 -104.5t-43 -105q-20 -20 -46 -31l89 -223h-91l-84 212h-84v-212h-75zM468 1094h112q30 0 51 21t21 51t-21 51t-51 21h-112v-72v-72z" />
<glyph unicode="&#xaf;" d="M0 1525v111h1024v-111h-1024z" />
<glyph unicode="&#xb0;" d="M202 1201q0 128 88 216t215 88q128 0 216 -88t88 -216q0 -127 -88 -215t-216 -88q-127 0 -215 88t-88 215zM282 1201q0 -93 64.5 -157.5t158.5 -64.5t159 64.5t65 157.5q0 94 -65 158.5t-159 64.5t-158.5 -64.5t-64.5 -158.5z" />
<glyph unicode="&#xb1;" d="M69 29v94h886v-94h-886zM69 676v94h396v396h94v-396h396v-94h-396v-396h-94v396h-396z" />
<glyph unicode="&#xb2;" d="M295 681v29v29q-7 94 43.5 167t203.5 188q83 62 112 104t29 100q0 56 -36.5 87.5t-100.5 31.5q-69 0 -110 -38t-43 -102h-72q3 96 65 152t165 56q96 0 150 -49t54 -136q0 -69 -48.5 -138.5t-148.5 -144.5q-133 -101 -165 -146q-29 -41 -26 -121h375v-69h-447z" />
<glyph unicode="&#xb3;" d="M236 899h71q-5 -74 42.5 -117t133.5 -43q83 0 130 43.5t47 120.5q0 81 -45 123t-132 42h-39v68q86 -4 134 35.5t48 112.5q0 63 -38.5 98t-106.5 35q-67 0 -105.5 -32t-37.5 -87h-72q-1 86 57 136.5t158 50.5q102 0 159.5 -51.5t57.5 -143.5q0 -96 -58 -148 q-24 -22 -57 -33q52 -13 86 -45q63 -57 63 -168q0 -106 -65.5 -165.5t-182.5 -59.5q-121 0 -187.5 61.5t-60.5 166.5z" />
<glyph unicode="&#xb4;" d="M380 1265l318 272l67 -87l-342 -241z" />
<glyph unicode="&#xb5;" d="M-26 -337l129 664l145 763h94l-134 -704q-26 -139 17.5 -235.5t132.5 -96.5q139 0 268 167.5t175 409.5l87 459h94l-112 -590q-41 -216 -56.5 -328.5t-12.5 -171.5h-43h-44q-4 49 11 162l13 80q-26 -42 -57 -81q-147 -191 -310 -191q-109 0 -173 68q-32 36 -46 80 l-84 -455h-94z" />
<glyph unicode="&#xb6;" d="M136 1045q0 216 161.5 348.5t425.5 132.5h260v-80h-138v-1772h-80v1772h-98v-1772h-80v892q-215 39 -333 163t-118 316z" />
<glyph unicode="&#xb7;" d="M419 737q0 39 27 66t66 27t66 -27t27 -66t-27 -65.5t-66 -26.5t-66 26.5t-27 65.5z" />
<glyph unicode="&#xb8;" d="M391 -391l17 74q49 -14 73 -19t47 -5q57 0 90.5 21.5t33.5 57.5q0 29 -24.5 46.5t-66 17.5t-66.5 -4t-41 -13l43 215h69l-27 -126l45 2q72 0 115.5 -36.5t43.5 -95.5q0 -77 -57.5 -119t-164.5 -42q-25 0 -54 6t-76 20z" />
<glyph unicode="&#xb9;" d="M310 1356v65l225 64v-736h145v-68h-181h-181v68h145v636z" />
<glyph unicode="&#xba;" d="M241 1161q0 162 70 253t195 91t195 -91t70 -253q0 -161 -70 -252t-195 -91t-195 91t-70 252zM321 1161q0 -132 48 -203t137 -71t137 71t48 203t-48 203.5t-137 71.5t-137 -71.5t-48 -203.5z" />
<glyph unicode="&#xbb;" d="M6 104l469 451l-469 448l55 59l528 -509l-528 -508zM423 104l469 451l-469 448l55 59l528 -509l-528 -508z" />
<glyph unicode="&#xbc;" d="M110 -27l828 1249l62 -42l-828 -1249zM66 1356v65l225 64v-736h145v-68h-181h-181v68h145v636zM480 -93v27v27l291 538h52h53v-525h105v-67h-105v-202h-72v202h-324zM555 -26h249v475z" />
<glyph unicode="&#xbd;" d="M77 -27l828 1249l62 -42l-828 -1249zM37 1356v65l225 64v-736h145v-68h-181h-181v68h145v636zM547 -295v29v29q-7 94 43.5 167t203.5 188q83 62 112 104t29 100q0 56 -36.5 87.5t-100.5 31.5q-69 0 -110 -38t-43 -102h-72q3 96 65 152t165 56q96 0 150 -49t54 -136 q0 -69 -48.5 -138.5t-148.5 -144.5q-133 -101 -165 -146q-29 -41 -26 -121h375v-69h-447z" />
<glyph unicode="&#xbe;" d="M122 -27l828 1249l62 -42l-828 -1249zM39 899h71q-5 -74 42.5 -117t133.5 -43q83 0 130 43.5t47 120.5q0 81 -45 123t-132 42h-39v68q86 -4 134 35.5t48 112.5q0 63 -38.5 98t-106.5 35q-67 0 -105.5 -32t-37.5 -87h-72q-1 86 57 136.5t158 50.5q102 0 159.5 -51.5 t57.5 -143.5q0 -96 -58 -148q-24 -22 -57 -33q52 -13 86 -45q63 -57 63 -168q0 -106 -65.5 -165.5t-182.5 -59.5q-121 0 -187.5 61.5t-60.5 166.5zM482 -93v27v27l291 538h52h53v-525h105v-67h-105v-202h-72v202h-324zM557 -26h249v475z" />
<glyph unicode="&#xbf;" d="M236 -84q0 103 46 186t152 171q58 48 75 80t17 92v179h94v-209q0 -62 -29.5 -111.5t-98.5 -102.5q-87 -68 -125 -134.5t-38 -150.5q0 -115 69 -188q68 -73 175 -73q112 0 179 63t65 167h93q2 -141 -90.5 -227t-246.5 -86q-148 0 -242.5 96.5t-94.5 247.5zM466 1013 q0 45 31 75.5t76 30.5t76 -30.5t31 -75.5t-31 -75.5t-76 -30.5t-76 30.5t-31 75.5z" />
<glyph unicode="&#xc0;" d="M18 0l421 1475h74h75l420 -1475h-50h-50l-128 449h-536l-126 -449h-50h-50zM268 532h490l-246 857zM326 1836l68 87l319 -271l-45 -58z" />
<glyph unicode="&#xc1;" d="M18 0l421 1475h74h75l420 -1475h-50h-50l-128 449h-536l-126 -449h-50h-50zM268 532h490l-246 857zM386 1650l318 272l67 -87l-342 -241z" />
<glyph unicode="&#xc2;" d="M18 0l421 1475h74h75l420 -1475h-50h-50l-128 449h-536l-126 -449h-50h-50zM268 532h490l-246 857zM182 1640l332 292h-1h-1l332 -292l-45 -46l-286 215l-286 -215z" />
<glyph unicode="&#xc3;" d="M18 0l421 1475h74h75l420 -1475h-50h-50l-128 449h-536l-126 -449h-50h-50zM268 532h490l-246 857zM145 1668q48 97 96 137t117 40q33 0 80 -18.5t97 -50.5q52 -34 84 -47t64 -13q37 0 70.5 32.5t60.5 94.5l67 -25q-33 -92 -86 -137.5t-127 -45.5q-31 0 -68 15.5 t-109 57.5q-48 29 -81.5 42.5t-53.5 13.5q-43 0 -79.5 -31.5t-66.5 -95.5z" />
<glyph unicode="&#xc4;" d="M18 0l421 1475h74h75l420 -1475h-50h-50l-128 449h-536l-126 -449h-50h-50zM268 532h490l-246 857zM280 1721q0 34 23 57t57 23t57 -23t23 -57q0 -33 -23 -56t-57 -23t-57 23t-23 56zM587 1721q0 34 23 57t57 23t57 -23t23 -57q0 -33 -23 -56t-57 -23t-57 23t-23 56z" />
<glyph unicode="&#xc5;" d="M18 0l421 1475h74h75l420 -1475h-50h-50l-128 449h-536l-126 -449h-50h-50zM268 532h490l-246 857zM348 1759q0 70 48 118t117 48q70 0 118 -48t48 -118q0 -69 -48 -117t-118 -48q-69 0 -117 48t-48 117zM418 1759q0 -40 27.5 -67.5t67.5 -27.5t68 27.5t28 67.5t-28 68 t-68 28t-67.5 -28t-27.5 -68z" />
<glyph unicode="&#xc6;" d="M1 0l385 1475h214h425v-41v-42h-425v-595h295v-41v-42h-295v-631h433v-41v-42h-433h-96v449h-297l-117 -449h-44h-45zM229 532h275v860h-51z" />
<glyph unicode="&#xc7;" d="M107 737q0 369 116.5 568.5t330.5 199.5q153 0 249 -85t101 -225h-96q-3 102 -73 164.5t-181 62.5q-168 0 -259.5 -178t-91.5 -507q1 -349 86.5 -516.5t264.5 -167.5q122 0 198 76q75 74 75 190v6h93v-8q0 -147 -102 -246q-104 -101 -264 -101q-223 0 -334.5 191.5 t-112.5 575.5zM408 -391l16 77q43 -16 66.5 -21t51.5 -5q56 0 89 20t33 54q0 29 -24.5 47t-67.5 18t-68 -4.5t-40 -14.5l50 220h67l-30 -125l46 1q72 0 117.5 -38.5t45.5 -99.5q0 -71 -60 -113t-162 -42q-25 0 -54.5 6t-75.5 20z" />
<glyph unicode="&#xc8;" d="M179 0v1475h715v-41v-42h-619v-595h441v-41v-42h-441v-631h630v-41v-42h-726zM314 1836l68 87l319 -271l-45 -58z" />
<glyph unicode="&#xc9;" d="M179 0v1475h715v-41v-42h-619v-595h441v-41v-42h-441v-631h630v-41v-42h-726zM374 1650l318 272l67 -87l-342 -241z" />
<glyph unicode="&#xca;" d="M188 0v1475h715v-41v-42h-619v-595h441v-41v-42h-441v-631h630v-41v-42h-726zM179 1640l332 292h-1h-1l332 -292l-45 -46l-286 215l-286 -215z" />
<glyph unicode="&#xcb;" d="M179 0v1475h715v-41v-42h-619v-595h441v-41v-42h-441v-631h630v-41v-42h-726zM268 1721q0 34 23 57t57 23t57 -23t23 -57q0 -33 -23 -56t-57 -23t-57 23t-23 56zM575 1721q0 34 23 57t57 23t57 -23t23 -57q0 -33 -23 -56t-57 -23t-57 23t-23 56z" />
<glyph unicode="&#xcc;" d="M262 0v83h203v1309h-203v83h251h251v-83h-203v-1309h203v-83h-251h-251zM326 1836l68 87l319 -271l-45 -58z" />
<glyph unicode="&#xcd;" d="M262 0v83h203v1309h-203v83h251h251v-83h-203v-1309h203v-83h-251h-251zM386 1650l318 272l67 -87l-342 -241z" />
<glyph unicode="&#xce;" d="M266 0v83h203v1309h-203v83h251h251v-83h-203v-1309h203v-83h-251h-251zM186 1640l332 292h-1h-1l332 -292l-45 -46l-286 215l-286 -215z" />
<glyph unicode="&#xcf;" d="M262 0v83h203v1309h-203v83h251h251v-83h-203v-1309h203v-83h-251h-251zM280 1721q0 34 23 57t57 23t57 -23t23 -57q0 -33 -23 -56t-57 -23t-57 23t-23 56zM587 1721q0 34 23 57t57 23t57 -23t23 -57q0 -33 -23 -56t-57 -23t-57 23t-23 56z" />
<glyph unicode="&#xd0;" d="M-10 725v83h141v667h48h287q252 0 358.5 -168.5t106.5 -562.5v-7q1 -398 -112.5 -567.5t-379.5 -169.5h-260h-48v725h-141zM227 83h212q218 0 307.5 147t88.5 507q1 360 -85.5 507.5t-298.5 147.5h-224v-584h274v-83h-274v-642z" />
<glyph unicode="&#xd1;" d="M150 0v1475h57h58l521 -1275v1275h48h48v-1475h-55h-56l-525 1285v-1285h-48h-48zM148 1668q48 97 96 137t117 40q33 0 80 -18.5t97 -50.5q52 -34 84 -47t64 -13q37 0 70.5 32.5t60.5 94.5l67 -25q-33 -92 -86 -137.5t-127 -45.5q-31 0 -68 15.5t-109 57.5 q-48 29 -81.5 42.5t-53.5 13.5q-43 0 -79.5 -31.5t-66.5 -95.5z" />
<glyph unicode="&#xd2;" d="M81 737q1 415 100 591.5t331 176.5q233 0 333 -177q98 -171 98 -575v-8v-8v-8q-1 -409 -99 -583q-100 -176 -332 -176t-331 176.5t-100 590.5zM177 737q1 -369 78 -526.5t257 -157.5q180 -1 258 157q77 155 77 518v9.5v8.5q-1 362 -77 518q-78 158 -258 158t-257 -157.5 t-78 -527.5zM325 1836l68 87l319 -271l-45 -58z" />
<glyph unicode="&#xd3;" d="M81 737q1 415 100 591.5t331 176.5q233 0 333 -177q98 -171 98 -575v-8v-8v-8q-1 -409 -99 -583q-100 -176 -332 -176t-331 176.5t-100 590.5zM177 737q1 -369 78 -526.5t257 -157.5q180 -1 258 157q77 155 77 518v9.5v8.5q-1 362 -77 518q-78 158 -258 158t-257 -157.5 t-78 -527.5zM385 1650l318 272l67 -87l-342 -241z" />
<glyph unicode="&#xd4;" d="M81 737q1 415 100 591.5t331 176.5q233 0 333 -177q98 -171 98 -575v-8v-8v-8q-1 -409 -99 -583q-100 -176 -332 -176t-331 176.5t-100 590.5zM177 737q1 -369 78 -526.5t257 -157.5q180 -1 258 157q77 155 77 518v9.5v8.5q-1 362 -77 518q-78 158 -258 158t-257 -157.5 t-78 -527.5zM181 1640l332 292h-1h-1l332 -292l-45 -46l-286 215l-286 -215z" />
<glyph unicode="&#xd5;" d="M81 737q1 415 100 591.5t331 176.5q233 0 333 -177q98 -171 98 -575v-8v-8v-8q-1 -409 -99 -583q-100 -176 -332 -176t-331 176.5t-100 590.5zM177 737q1 -369 78 -526.5t257 -157.5q180 -1 258 157q77 155 77 518v9.5v8.5q-1 362 -77 518q-78 158 -258 158t-257 -157.5 t-78 -527.5zM144 1668q48 97 96 137t117 40q33 0 80 -18.5t97 -50.5q52 -34 84 -47t64 -13q37 0 70.5 32.5t60.5 94.5l67 -25q-33 -92 -86 -137.5t-127 -45.5q-31 0 -68 15.5t-109 57.5q-48 29 -81.5 42.5t-53.5 13.5q-43 0 -79.5 -31.5t-66.5 -95.5z" />
<glyph unicode="&#xd6;" d="M81 737q1 415 100 591.5t331 176.5q233 0 333 -177q98 -171 98 -575v-8v-8v-8q-1 -409 -99 -583q-100 -176 -332 -176t-331 176.5t-100 590.5zM177 737q1 -369 78 -526.5t257 -157.5q180 -1 258 157q77 155 77 518v9.5v8.5q-1 362 -77 518q-78 158 -258 158t-257 -157.5 t-78 -527.5zM279 1721q0 34 23 57t57 23t57 -23t23 -57q0 -33 -23 -56t-57 -23t-57 23t-23 56zM586 1721q0 34 23 57t57 23t57 -23t23 -57q0 -33 -23 -56t-57 -23t-57 23t-23 56z" />
<glyph unicode="&#xd7;" d="M87 360l363 363l-363 363l62 62l363 -363l363 363l62 -62l-363 -363l363 -363l-62 -62l-363 363l-363 -363z" />
<glyph unicode="&#xd8;" d="M84 5l92 167q-85 181 -86 565q1 415 100 591.5t331 176.5q209 0 310 -142l62 112l65 -35l-84 -152q79 -176 78 -543v-8q1 -414 -98.5 -590.5t-332.5 -176.5q-199 1 -301 129l-71 -129zM186 737q1 -295 50 -457l285 518l257 468q-76 157 -257 156q-180 0 -257 -157.5 t-78 -527.5zM272 194q78 -141 249 -141q181 0 258.5 157.5t76.5 526.5q2 281 -44 439l-291 -529z" />
<glyph unicode="&#xd9;" d="M128 431v1044h48h48v-1048q0 -172 78 -273t210 -101q147 0 217.5 91.5t70.5 282.5v1048h48h48v-1044q0 -226 -98 -343.5t-286 -117.5q-180 0 -282 122t-102 339zM325 1836l68 87l319 -271l-45 -58z" />
<glyph unicode="&#xda;" d="M128 431v1044h48h48v-1048q0 -172 78 -273t210 -101q147 0 217.5 91.5t70.5 282.5v1048h48h48v-1044q0 -226 -98 -343.5t-286 -117.5q-180 0 -282 122t-102 339zM385 1650l318 272l67 -87l-342 -241z" />
<glyph unicode="&#xdb;" d="M128 431v1044h48h48v-1048q0 -172 78 -273t210 -101q147 0 217.5 91.5t70.5 282.5v1048h48h48v-1044q0 -226 -98 -343.5t-286 -117.5q-180 0 -282 122t-102 339zM181 1640l332 292h-1h-1l332 -292l-45 -46l-286 215l-286 -215z" />
<glyph unicode="&#xdc;" d="M128 431v1044h48h48v-1048q0 -172 78 -273t210 -101q147 0 217.5 91.5t70.5 282.5v1048h48h48v-1044q0 -226 -98 -343.5t-286 -117.5q-180 0 -282 122t-102 339zM279 1721q0 34 23 57t57 23t57 -23t23 -57q0 -33 -23 -56t-57 -23t-57 23t-23 56zM586 1721q0 34 23 57 t57 23t57 -23t23 -57q0 -33 -23 -56t-57 -23t-57 23t-23 56z" />
<glyph unicode="&#xdd;" d="M100 1475h50h50l313 -736l314 736h48h49l-364 -836v-639h-48h-48v635zM385 1650l318 272l67 -87l-342 -241z" />
<glyph unicode="&#xde;" d="M183 0v1475h48h48v-273h197q217 0 325.5 -109t108.5 -327q0 -217 -108.5 -325.5t-325.5 -108.5h-197v-332h-48h-48zM279 415h197q172 0 255 86t83 265q0 180 -83 266.5t-255 86.5h-197v-704z" />
<glyph unicode="&#xdf;" d="M182 0v1183q0 148 79 234.5t213 86.5q161 0 251.5 -100.5t90.5 -279.5q0 -156 -107 -257q-43 -41 -103 -70q85 -29 144 -85q121 -113 121 -314t-81 -314.5t-225 -113.5q-48 0 -91.5 16.5t-73.5 46.5l45 66q22 -22 52.5 -34t63.5 -12q101 0 157.5 91.5t56.5 253.5 t-96 253.5t-266 91.5v83q144 18 225.5 97t81.5 201q0 140 -64.5 218.5t-178.5 78.5q-96 0 -149 -62q-52 -62 -52 -176v-1183h-47h-47z" />
<glyph unicode="&#xe0;" d="M127 338q0 167 89.5 268.5t236.5 101.5q157 0 248 -54l5 -3v88q0 155 -52 226.5t-165 71.5q-65 0 -130 -18t-116 -50l-36 75q56 36 134.5 56t161.5 20q149 0 223 -95t74 -286v-429q0 -85 12.5 -171t34.5 -154l-92 -14l-35 169q-39 -49 -85 -87q-101 -83 -200 -83 q-136 0 -222 103t-86 265zM223 338q0 -125 61.5 -205t157.5 -80q76 0 156 69q62 54 108 131v308q-21 14 -57 28q-89 36 -171 36q-115 0 -185 -79t-70 -208zM252 1451l68 87l319 -271l-45 -58z" />
<glyph unicode="&#xe1;" d="M127 338q0 167 89.5 268.5t236.5 101.5q157 0 248 -54l5 -3v88q0 155 -52 226.5t-165 71.5q-65 0 -130 -18t-116 -50l-36 75q56 36 134.5 56t161.5 20q149 0 223 -95t74 -286v-429q0 -85 12.5 -171t34.5 -154l-92 -14l-35 169q-39 -49 -85 -87q-101 -83 -200 -83 q-136 0 -222 103t-86 265zM223 338q0 -125 61.5 -205t157.5 -80q76 0 156 69q62 54 108 131v308q-21 14 -57 28q-89 36 -171 36q-115 0 -185 -79t-70 -208zM330 1265l318 272l67 -87l-342 -241z" />
<glyph unicode="&#xe2;" d="M127 338q0 167 89.5 268.5t236.5 101.5q157 0 248 -54l5 -3v88q0 155 -52 226.5t-165 71.5q-65 0 -130 -18t-116 -50l-36 75q56 36 134.5 56t161.5 20q149 0 223 -95t74 -286v-429q0 -85 12.5 -171t34.5 -154l-92 -14l-35 169q-39 -49 -85 -87q-101 -83 -200 -83 q-136 0 -222 103t-86 265zM223 338q0 -125 61.5 -205t157.5 -80q76 0 156 69q62 54 108 131v308q-21 14 -57 28q-89 36 -171 36q-115 0 -185 -79t-70 -208zM154 1255l331 292h-1h-1l331 -292l-45 -46l-285 215l-285 -215z" />
<glyph unicode="&#xe3;" d="M138 338q0 167 89.5 268.5t236.5 101.5q157 0 248 -54l5 -3v88q0 155 -52 226.5t-165 71.5q-65 0 -130 -18t-116 -50l-36 75q56 36 134.5 56t161.5 20q149 0 223 -95t74 -286v-429q0 -85 12.5 -171t34.5 -154l-92 -14l-35 169q-39 -49 -85 -87q-101 -83 -200 -83 q-136 0 -222 103t-86 265zM234 338q0 -125 61.5 -205t157.5 -80q76 0 156 69q62 54 108 131v308q-21 14 -57 28q-89 36 -171 36q-115 0 -185 -79t-70 -208zM127 1283q48 97 96 137t117 40q33 0 80 -18.5t97 -50.5q52 -34 84 -47t64 -13q37 0 70.5 32.5t60.5 94.5l67 -25 q-33 -92 -86 -137.5t-127 -45.5q-31 0 -68 15.5t-109 57.5q-48 29 -81.5 42.5t-53.5 13.5q-43 0 -79.5 -31.5t-66.5 -95.5z" />
<glyph unicode="&#xe4;" d="M127 338q0 167 89.5 268.5t236.5 101.5q157 0 248 -54l5 -3v88q0 155 -52 226.5t-165 71.5q-65 0 -130 -18t-116 -50l-36 75q56 36 134.5 56t161.5 20q149 0 223 -95t74 -286v-429q0 -85 12.5 -171t34.5 -154l-92 -14l-35 169q-39 -49 -85 -87q-101 -83 -200 -83 q-136 0 -222 103t-86 265zM223 338q0 -125 61.5 -205t157.5 -80q76 0 156 69q62 54 108 131v308q-21 14 -57 28q-89 36 -171 36q-115 0 -185 -79t-70 -208zM251 1336q0 34 23 57t57 23t57 -23t23 -57q0 -33 -23 -56t-57 -23t-57 23t-23 56zM558 1336q0 34 23 57t57 23 t57 -23t23 -57q0 -33 -23 -56t-57 -23t-57 23t-23 56z" />
<glyph unicode="&#xe5;" d="M127 338q0 167 89.5 268.5t236.5 101.5q157 0 248 -54l5 -3v88q0 155 -52 226.5t-165 71.5q-65 0 -130 -18t-116 -50l-36 75q56 36 134.5 56t161.5 20q149 0 223 -95t74 -286v-429q0 -85 12.5 -171t34.5 -154l-92 -14l-35 169q-39 -49 -85 -87q-101 -83 -200 -83 q-136 0 -222 103t-86 265zM223 338q0 -125 61.5 -205t157.5 -80q76 0 156 69q62 54 108 131v308q-21 14 -57 28q-89 36 -171 36q-115 0 -185 -79t-70 -208zM319 1374q0 70 48 118t117 48q70 0 118 -48t48 -118q0 -69 -48 -117t-118 -48q-69 0 -117 48t-48 117zM389 1374 q0 -40 27.5 -67.5t67.5 -27.5t68 27.5t28 67.5t-28 68t-68 28t-67.5 -28t-27.5 -68z" />
<glyph unicode="&#xe6;" d="M-5 333q0 164 84 264t222 100q97 0 159 -31v135q0 132 -29.5 184t-103.5 52q-54 0 -114.5 -27t-114.5 -74l-36 75q58 51 130 80t141 29q119 0 170 -74q15 -21 25 -51q72 126 208 125q133 0 200 -144q65 -141 65 -424v-8v-19h-447q2 -260 46.5 -366t160.5 -106 q52 0 95 31.5t67 87.5l78 -30q-38 -89 -96 -130.5t-145 -41.5q-164 0 -237 135l-2 3q-12 -33 -35 -59q-67 -79 -213 -79q-122 0 -200 101.5t-78 261.5zM91 333q0 -123 55 -201.5t142 -78.5q90 0 145 68l2 3q11 16 18 41t7 46v370q-16 8 -39 14q-70 19 -132 19 q-89 0 -143.5 -77.5t-54.5 -203.5zM555 606h356q-4 205 -45 310q-46 121 -141 121q-99 0 -135 -104q-33 -91 -35 -327z" />
<glyph unicode="&#xe7;" d="M101 544q0 271 118 423.5t327 152.5q118 0 214.5 -60t150.5 -166l-80 -52q-47 92 -121 143.5t-160 51.5q-169 0 -261 -128t-92 -365q0 -236 92 -363.5t261 -127.5q69 0 147 44t147 123l67 -67q-76 -86 -172.5 -134.5t-192.5 -48.5q-209 0 -327 152t-118 422zM399 -391 l17 74q49 -14 73 -19t47 -5q57 0 90.5 21.5t33.5 57.5q0 29 -24.5 46.5t-66 17.5t-66.5 -4t-41 -13l43 215h69l-27 -126l45 2q72 0 115.5 -36.5t43.5 -95.5q0 -77 -57.5 -119t-164.5 -42q-25 0 -54 6t-76 20z" />
<glyph unicode="&#xe8;" d="M105 544q0 271 113.5 423.5t314.5 152.5q187 0 291.5 -152.5t104.5 -423.5v-19h-728q3 -222 89 -347t247 -125q84 0 160.5 33t128.5 91l70 -46q-67 -76 -162 -118.5t-197 -42.5q-203 0 -317.5 152t-114.5 422zM202 606h629q-8 193 -77 303q-79 128 -225 128 q-157 0 -243 -128q-72 -110 -84 -303zM301 1451l68 87l319 -271l-45 -58z" />
<glyph unicode="&#xe9;" d="M105 544q0 271 113.5 423.5t314.5 152.5q187 0 291.5 -152.5t104.5 -423.5v-19h-728q3 -222 89 -347t247 -125q84 0 160.5 33t128.5 91l70 -46q-67 -76 -162 -118.5t-197 -42.5q-203 0 -317.5 152t-114.5 422zM202 606h629q-8 193 -77 303q-79 128 -225 128 q-157 0 -243 -128q-72 -110 -84 -303zM379 1265l318 272l67 -87l-342 -241z" />
<glyph unicode="&#xea;" d="M105 544q0 271 113.5 423.5t314.5 152.5q187 0 291.5 -152.5t104.5 -423.5v-19h-728q3 -222 89 -347t247 -125q84 0 160.5 33t128.5 91l70 -46q-67 -76 -162 -118.5t-197 -42.5q-203 0 -317.5 152t-114.5 422zM202 606h629q-8 193 -77 303q-79 128 -225 128 q-157 0 -243 -128q-72 -110 -84 -303zM203 1255l331 292h-1h-1l331 -292l-45 -46l-285 215l-285 -215z" />
<glyph unicode="&#xeb;" d="M105 544q0 271 113.5 423.5t314.5 152.5q187 0 291.5 -152.5t104.5 -423.5v-19h-728q3 -222 89 -347t247 -125q84 0 160.5 33t128.5 91l70 -46q-67 -76 -162 -118.5t-197 -42.5q-203 0 -317.5 152t-114.5 422zM202 606h629q-8 193 -77 303q-79 128 -225 128 q-157 0 -243 -128q-72 -110 -84 -303zM300 1336q0 34 23 57t57 23t57 -23t23 -57q0 -33 -23 -56t-57 -23t-57 23t-23 56zM607 1336q0 34 23 57t57 23t57 -23t23 -57q0 -33 -23 -56t-57 -23t-57 23t-23 56z" />
<glyph unicode="&#xec;" d="M182 1007v83h218h218v-1090h-47h-47v1007h-342zM226 1451l68 87l319 -271l-45 -58z" />
<glyph unicode="&#xed;" d="M182 1007v83h218h218v-1090h-47h-47v1007h-342zM304 1265l318 272l67 -87l-342 -241z" />
<glyph unicode="&#xee;" d="M211 1007v83h218h218v-1090h-47h-47v1007h-342zM157 1255l331 292h-1h-1l331 -292l-45 -46l-285 215l-285 -215z" />
<glyph unicode="&#xef;" d="M182 1007v83h218h218v-1090h-47h-47v1007h-342zM225 1336q0 34 23 57t57 23t57 -23t23 -57q0 -33 -23 -56t-57 -23t-57 23t-23 56zM532 1336q0 34 23 57t57 23t57 -23t23 -57q0 -33 -23 -56t-57 -23t-57 23t-23 56z" />
<glyph unicode="&#xf0;" d="M82 496q0 237 116.5 382t306.5 145q147 0 256 -88q-35 115 -87 208q-42 75 -93 131l-138 -88l-35 61l122 78q-95 87 -220 129l41 65q144 -49 252 -147l136 87l35 -61l-122 -78q56 -60 100 -138q144 -250 144 -605q0 -285 -107.5 -446t-299.5 -161q-175 0 -291 150 t-116 376zM178 496q0 -195 87 -319t224 -124q149 0 232.5 139t83.5 385q0 105 -13 202q-26 53 -80 94q-89 67 -211 67q-155 0 -239 -116q-84 -115 -84 -328z" />
<glyph unicode="&#xf1;" d="M115 1090h46h46q23 -82 32 -195l4 -64q24 49 58 94q139 191 325 191q130 0 190 -82.5t60 -262.5v-771h-47h-47v757q0 146 -37 210.5t-122 64.5q-155 0 -262.5 -160.5t-107.5 -392.5v-479h-47h-47v590q0 173 -10 285.5t-34 214.5zM149 1283q48 97 96 137t117 40 q33 0 80 -18.5t97 -50.5q52 -34 84 -47t64 -13q37 0 70.5 32.5t60.5 94.5l67 -25q-33 -92 -86 -137.5t-127 -45.5q-31 0 -68 15.5t-109 57.5q-48 29 -81.5 42.5t-53.5 13.5q-43 0 -79.5 -31.5t-66.5 -95.5z" />
<glyph unicode="&#xf2;" d="M102 544q0 271 109 423.5t301 152.5q193 0 301.5 -152.5t108.5 -423.5q0 -270 -108.5 -422t-301.5 -152q-192 0 -301 152t-109 422zM198 544q0 -236 81.5 -363.5t232.5 -127.5t232.5 127.5t81.5 363.5q0 237 -81.5 365t-232.5 128t-232.5 -128t-81.5 -365zM280 1451 l68 87l319 -271l-45 -58z" />
<glyph unicode="&#xf3;" d="M102 544q0 271 109 423.5t301 152.5q193 0 301.5 -152.5t108.5 -423.5q0 -270 -108.5 -422t-301.5 -152q-192 0 -301 152t-109 422zM198 544q0 -236 81.5 -363.5t232.5 -127.5t232.5 127.5t81.5 363.5q0 237 -81.5 365t-232.5 128t-232.5 -128t-81.5 -365zM358 1265 l318 272l67 -87l-342 -241z" />
<glyph unicode="&#xf4;" d="M102 544q0 271 109 423.5t301 152.5q193 0 301.5 -152.5t108.5 -423.5q0 -270 -108.5 -422t-301.5 -152q-192 0 -301 152t-109 422zM198 544q0 -236 81.5 -363.5t232.5 -127.5t232.5 127.5t81.5 363.5q0 237 -81.5 365t-232.5 128t-232.5 -128t-81.5 -365zM182 1255 l331 292h-1h-1l331 -292l-45 -46l-285 215l-285 -215z" />
<glyph unicode="&#xf5;" d="M102 544q0 271 109 423.5t301 152.5q193 0 301.5 -152.5t108.5 -423.5q0 -270 -108.5 -422t-301.5 -152q-192 0 -301 152t-109 422zM198 544q0 -236 81.5 -363.5t232.5 -127.5t232.5 127.5t81.5 363.5q0 237 -81.5 365t-232.5 128t-232.5 -128t-81.5 -365zM144 1283 q48 97 96 137t117 40q33 0 80 -18.5t97 -50.5q52 -34 84 -47t64 -13q37 0 70.5 32.5t60.5 94.5l67 -25q-33 -92 -86 -137.5t-127 -45.5q-31 0 -68 15.5t-109 57.5q-48 29 -81.5 42.5t-53.5 13.5q-43 0 -79.5 -31.5t-66.5 -95.5z" />
<glyph unicode="&#xf6;" d="M102 544q0 271 109 423.5t301 152.5q193 0 301.5 -152.5t108.5 -423.5q0 -270 -108.5 -422t-301.5 -152q-192 0 -301 152t-109 422zM198 544q0 -236 81.5 -363.5t232.5 -127.5t232.5 127.5t81.5 363.5q0 237 -81.5 365t-232.5 128t-232.5 -128t-81.5 -365zM279 1336 q0 34 23 57t57 23t57 -23t23 -57q0 -33 -23 -56t-57 -23t-57 23t-23 56zM586 1336q0 34 23 57t57 23t57 -23t23 -57q0 -33 -23 -56t-57 -23t-57 23t-23 56z" />
<glyph unicode="&#xf7;" d="M69 676v94h886v-94h-886zM431 391q0 34 23.5 57.5t57.5 23.5t57.5 -23.5t23.5 -57.5t-23.5 -57t-57.5 -23t-57.5 23t-23.5 57zM431 1054q0 34 23.5 57.5t57.5 23.5t57.5 -23.5t23.5 -57.5t-23.5 -57t-57.5 -23t-57.5 23t-23.5 57z" />
<glyph unicode="&#xf8;" d="M104 544q0 271 109 423.5t301 152.5q149 0 246 -91l69 116l63 -36l-82 -137q5 -1 6 -5q108 -152 108 -423q0 -270 -108.5 -422t-301.5 -152q-146 0 -247 90l-68 -115l-63 36l81 136l-4 5q-109 152 -109 422zM200 544q0 -215 68 -342l246 413l200 337q-76 85 -200 85 q-151 0 -232.5 -128t-81.5 -365zM314 138q77 -85 200 -85q151 0 232.5 127.5t81.5 363.5q1 217 -69 342l-245 -411z" />
<glyph unicode="&#xf9;" d="M147 354v736h47h47v-744q0 -156 37 -224t122 -68q155 0 262.5 153.5t107.5 375.5v507h47h47v-590q0 -174 10 -286.5t34 -213.5h-46h-46q-23 84 -32 197l-4 56q-26 -51 -60 -99q-132 -184 -308 -184q-138 0 -201.5 92t-63.5 292zM273 1451l68 87l319 -271l-45 -58z" />
<glyph unicode="&#xfa;" d="M147 354v736h47h47v-744q0 -156 37 -224t122 -68q155 0 262.5 153.5t107.5 375.5v507h47h47v-590q0 -174 10 -286.5t34 -213.5h-46h-46q-23 84 -32 197l-4 56q-26 -51 -60 -99q-132 -184 -308 -184q-138 0 -201.5 92t-63.5 292zM351 1265l318 272l67 -87l-342 -241z" />
<glyph unicode="&#xfb;" d="M147 354v736h47h47v-744q0 -156 37 -224t122 -68q155 0 262.5 153.5t107.5 375.5v507h47h47v-590q0 -174 10 -286.5t34 -213.5h-46h-46q-23 84 -32 197l-4 56q-26 -51 -60 -99q-132 -184 -308 -184q-138 0 -201.5 92t-63.5 292zM175 1255l331 292h-1h-1l331 -292l-45 -46 l-285 215l-285 -215z" />
<glyph unicode="&#xfc;" d="M147 354v736h47h47v-744q0 -156 37 -224t122 -68q155 0 262.5 153.5t107.5 375.5v507h47h47v-590q0 -174 10 -286.5t34 -213.5h-46h-46q-23 84 -32 197l-4 56q-26 -51 -60 -99q-132 -184 -308 -184q-138 0 -201.5 92t-63.5 292zM272 1336q0 34 23 57t57 23t57 -23t23 -57 q0 -33 -23 -56t-57 -23t-57 23t-23 56zM579 1336q0 34 23 57t57 23t57 -23t23 -57q0 -33 -23 -56t-57 -23t-57 23t-23 56z" />
<glyph unicode="&#xfd;" d="M-33 -139l82 46q23 -90 59.5 -131.5t95.5 -41.5t105 40.5t86 128.5l89 235l-347 952h50h50l298 -820l308 820h50h51l-447 -1187q-63 -139 -128.5 -195.5t-162.5 -56.5q-99 0 -156 50t-83 160zM386 1265l318 272l67 -87l-342 -241z" />
<glyph unicode="&#xfe;" d="M154 -428v1947h47h47v-540l5 6q116 135 256 135q186 0 304 -161.5t118 -414.5q0 -258 -123 -416t-325 -158q-130 1 -235 90v-488h-47h-47zM248 176l13 -14q96 -109 224 -109q158 0 254 135t96 356q0 217 -88.5 355t-227.5 138q-118 0 -216 -116q-29 -36 -55 -77v-668z " />
<glyph unicode="&#xff;" d="M-33 -139l82 46q23 -90 59.5 -131.5t95.5 -41.5t105 40.5t86 128.5l89 235l-347 952h50h50l298 -820l308 820h50h51l-447 -1187q-63 -139 -128.5 -195.5t-162.5 -56.5q-99 0 -156 50t-83 160zM307 1336q0 34 23 57t57 23t57 -23t23 -57q0 -33 -23 -56t-57 -23t-57 23 t-23 56zM614 1336q0 34 23 57t57 23t57 -23t23 -57q0 -33 -23 -56t-57 -23t-57 23t-23 56z" />
<glyph unicode="&#x131;" d="M182 1007v83h218h218v-1090h-47h-47v1007h-342z" />
<glyph unicode="&#x152;" d="M61 706q1 431 76 615t252 184q37 0 81 -9q44 -8 72 -21h76h425v-41v-42h-425v-595h295v-41v-42h-295v-631h433v-41v-42h-433h-76q-28 -13 -71 -22q-42 -8 -76 -8q-180 0 -256.5 169.5t-77.5 566.5zM157 696q1 -347 55.5 -495t181.5 -148q32 0 69 6.5t59 15.5v1315v-6 q-30 16 -70.5 27t-68.5 11q-122 0 -173.5 -167t-52.5 -559z" />
<glyph unicode="&#x153;" d="M-4 544q1 294 70 435t212 141q150 0 217 -136l14 -31q7 24 17 43q60 124 220 124q141 0 202 -133q59 -130 59 -433v-10v-19h-447q2 -269 43 -370.5t156 -101.5q56 0 101.5 32.5t70.5 90.5l76 -34q-35 -81 -100.5 -126.5t-147.5 -45.5q-168 0 -231 124q-11 22 -21 52 l-16 -36q-69 -140 -213 -140q-160 0 -220.5 123.5t-61.5 450.5zM92 544q0 -275 41 -383t145 -108q97 0 141.5 118t44.5 373q0 261 -44 377q-43 116 -142 116q-93 0 -139.5 -123t-46.5 -370zM560 606h350q-3 223 -37 320q-38 111 -131 111q-106 0 -144 -104q-33 -91 -38 -327 z" />
<glyph unicode="&#x178;" d="M100 1475h50h50l313 -736l314 736h48h49l-364 -836v-639h-48h-48v635zM279 1721q0 34 23 57t57 23t57 -23t23 -57q0 -33 -23 -56t-57 -23t-57 23t-23 56zM586 1721q0 34 23 57t57 23t57 -23t23 -57q0 -33 -23 -56t-57 -23t-57 23t-23 56z" />
<glyph unicode="&#x2c6;" d="M176 1255l331 292h-1h-1l331 -292l-45 -46l-285 215l-285 -215z" />
<glyph unicode="&#x2dc;" d="M166 1283q48 97 96 137t117 40q33 0 80 -18.5t97 -50.5q52 -34 84 -47t64 -13q37 0 70.5 32.5t60.5 94.5l67 -25q-33 -92 -86 -137.5t-127 -45.5q-31 0 -68 15.5t-109 57.5q-48 29 -81.5 42.5t-53.5 13.5q-43 0 -79.5 -31.5t-66.5 -95.5z" />
<glyph unicode="&#x2000;" horiz-adv-x="966" />
<glyph unicode="&#x2001;" horiz-adv-x="1932" />
<glyph unicode="&#x2002;" horiz-adv-x="966" />
<glyph unicode="&#x2003;" horiz-adv-x="1932" />
<glyph unicode="&#x2004;" horiz-adv-x="644" />
<glyph unicode="&#x2005;" horiz-adv-x="483" />
<glyph unicode="&#x2006;" horiz-adv-x="322" />
<glyph unicode="&#x2007;" horiz-adv-x="322" />
<glyph unicode="&#x2008;" horiz-adv-x="241" />
<glyph unicode="&#x2009;" horiz-adv-x="386" />
<glyph unicode="&#x200a;" horiz-adv-x="107" />
<glyph unicode="&#x2010;" d="M258 513v91h506v-91h-506z" />
<glyph unicode="&#x2011;" d="M258 513v91h506v-91h-506z" />
<glyph unicode="&#x2012;" d="M258 513v91h506v-91h-506z" />
<glyph unicode="&#x2013;" d="M191 515v80h642v-80h-642z" />
<glyph unicode="&#x2014;" d="M0 515v80h1024v-80h-1024z" />
<glyph unicode="&#x2018;" d="M408 1276q0 82 54 145.5t142 84.5v-48q-54 -7 -91 -58q-14 -20 -23 -41h15q44 0 65.5 -23t21.5 -70q0 -39 -26.5 -66t-65.5 -27q-41 0 -66.5 28.5t-25.5 74.5z" />
<glyph unicode="&#x2019;" d="M408 1171v48q54 7 91 58q14 20 23 41h-15q-44 0 -65.5 23t-21.5 70q0 39 26.5 66t65.5 27q41 0 66.5 -28.5t25.5 -74.5q0 -82 -54 -145.5t-142 -84.5z" />
<glyph unicode="&#x201a;" d="M408 -126q54 7 91 58q14 19 23 41h-15q-44 0 -65.5 23t-21.5 70q0 39 26.5 66t65.5 27q41 0 66.5 -28.5t25.5 -74.5q0 -82 -54 -145.5t-142 -84.5v48z" />
<glyph unicode="&#x201c;" d="M258 1276q0 82 54 145.5t142 84.5v-48q-54 -7 -91 -58q-14 -20 -23 -41h15q44 0 65.5 -23t21.5 -70q0 -39 -26.5 -66t-65.5 -27q-41 0 -66.5 28.5t-25.5 74.5zM569 1276q0 82 54 145.5t142 84.5v-48q-54 -7 -91 -58q-14 -20 -23 -41h15q44 0 65.5 -23t21.5 -70 q0 -39 -26.5 -66t-65.5 -27q-41 0 -66.5 28.5t-25.5 74.5z" />
<glyph unicode="&#x201d;" d="M258 1171v48q54 7 91 58q14 20 23 41h-15q-44 0 -65.5 23t-21.5 70q0 39 26.5 66t65.5 27q41 0 66.5 -28.5t25.5 -74.5q0 -82 -54 -145.5t-142 -84.5zM569 1171v48q54 7 91 58q14 20 23 41h-15q-44 0 -65.5 23t-21.5 70q0 39 26.5 66t65.5 27q41 0 66.5 -28.5t25.5 -74.5 q0 -82 -54 -145.5t-142 -84.5z" />
<glyph unicode="&#x201e;" d="M258 -126q54 7 91 58q14 19 23 41h-15q-44 0 -65.5 23t-21.5 70q0 39 26.5 66t65.5 27q41 0 66.5 -28.5t25.5 -74.5q0 -82 -54 -145.5t-142 -84.5v48zM569 -126q54 7 91 58q14 19 23 41h-15q-44 0 -65.5 23t-21.5 70q0 39 26.5 66t65.5 27q41 0 66.5 -28.5t25.5 -74.5 q0 -82 -54 -145.5t-142 -84.5v48z" />
<glyph unicode="&#x2022;" d="M142 601q0 155 107.5 262.5t262.5 107.5t262.5 -107.5t107.5 -262.5t-107.5 -262.5t-262.5 -107.5t-262.5 107.5t-107.5 262.5z" />
<glyph unicode="&#x2026;" d="M78 65q0 39 27 66t66 27t66 -27t27 -66t-27 -65.5t-66 -26.5t-66 26.5t-27 65.5zM417 65q0 39 27 66t66 27t66 -27t27 -66t-27 -65.5t-66 -26.5t-66 26.5t-27 65.5zM757 65q0 39 27 66t66 27t66 -27t27 -66t-27 -65.5t-66 -26.5t-66 26.5t-27 65.5z" />
<glyph unicode="&#x202f;" horiz-adv-x="386" />
<glyph unicode="&#x2039;" d="M220 554l528 508l55 -59l-469 -451l469 -448l-55 -59z" />
<glyph unicode="&#x203a;" d="M220 104l469 451l-469 448l55 59l528 -509l-528 -508z" />
<glyph unicode="&#x205f;" horiz-adv-x="483" />
<glyph unicode="&#x20ac;" d="M26 584l17 83h104v70l1 70h-122l17 83h109q21 260 111 416q116 199 330 199q151 0 245.5 -85t99.5 -225h-96q-3 102 -71.5 164.5t-177.5 62.5q-168 0 -259 -175q-69 -133 -87 -357h456l-17 -83h-442l-1 -56l1 -84h414l-17 -83h-393q18 -231 82 -360q85 -171 263 -171 q121 0 197 76t74 196h93q3 -153 -101 -254t-263 -101q-223 0 -334 192q-88 152 -107 422h-126z" />
<glyph unicode="&#x2122;" d="M72 1299v89h393v-89h-152v-518h-89v518h-152zM528 781v607h160l112 -486l112 486h160v-607h-89v559l-129 -559h-108l-129 559v-559h-89z" />
<glyph unicode="&#x2215;" d="M116 -27l828 1249l62 -42l-828 -1249z" />
<glyph unicode="&#xe000;" horiz-adv-x="1090" d="M0 1090h1090v-1090h-1090v1090z" />
<glyph unicode="&#xfb01;" d="M36 1007v83h198v85q0 151 86.5 240t234.5 89q83 0 152.5 -20t109.5 -56v-84q-41 36 -110.5 56.5t-151.5 20.5q-109 0 -168 -64t-59 -182v-85h473v-1090h-47h-47v1007h-379v-1007h-47h-47v1007h-198z" />
<glyph unicode="&#xfb02;" horiz-adv-x="2048" d="M1211 1436v83h205h205v-1519h-47h-47v1436h-316zM151 1007v83h277v85q0 151 85 240t230 89q80 0 148.5 -20t108.5 -56v-84q-41 36 -109 56.5t-148 20.5q-106 0 -163.5 -64t-57.5 -182v-85h350v-83h-350v-1007h-47h-47v1007h-277z" />
<glyph unicode="&#xfb03;" horiz-adv-x="3072" d="M2231 1007v83h218h218v-1090h-47h-47v1007h-342zM2524 1379q0 32 22.5 54.5t54.5 22.5t54.5 -22.5t22.5 -54.5t-22.5 -54.5t-54.5 -22.5t-54.5 22.5t-22.5 54.5zM1175 1007v83h277v85q0 151 85 240t230 89q80 0 148.5 -20t108.5 -56v-84q-41 36 -109 56.5t-148 20.5 q-106 0 -163.5 -64t-57.5 -182v-85h350v-83h-350v-1007h-47h-47v1007h-277zM151 1007v83h277v85q0 151 85 240t230 89q80 0 148.5 -20t108.5 -56v-84q-41 36 -109 56.5t-148 20.5q-106 0 -163.5 -64t-57.5 -182v-85h350v-83h-350v-1007h-47h-47v1007h-277z" />
<glyph unicode="&#xfb04;" horiz-adv-x="3072" d="M2235 1436v83h205h205v-1519h-47h-47v1436h-316zM1175 1007v83h277v85q0 151 85 240t230 89q80 0 148.5 -20t108.5 -56v-84q-41 36 -109 56.5t-148 20.5q-106 0 -163.5 -64t-57.5 -182v-85h350v-83h-350v-1007h-47h-47v1007h-277zM151 1007v83h277v85q0 151 85 240 t230 89q80 0 148.5 -20t108.5 -56v-84q-41 36 -109 56.5t-148 20.5q-106 0 -163.5 -64t-57.5 -182v-85h350v-83h-350v-1007h-47h-47v1007h-277z" />
<glyph horiz-adv-x="0" d="M-478 1051q0 201 138.5 339.5t338.5 138.5q201 0 339.5 -138.5t138.5 -339.5q0 -200 -138.5 -338.5t-339.5 -138.5q-200 0 -338.5 138.5t-138.5 338.5zM-413 1051q0 -173 119.5 -292.5t292.5 -119.5t293 119.5t120 292.5t-120 293t-293 120t-292.5 -120t-119.5 -293z" />
<glyph horiz-adv-x="0" d="M-244 1060q0 116 75.5 195.5t184.5 79.5q58 0 114.5 -22t79.5 -54l-58 -62q-19 26 -58.5 44.5t-77.5 18.5q-78 0 -131.5 -58t-53.5 -142t54.5 -141.5t133.5 -57.5q37 0 77 19.5t61 47.5l58 -62q-24 -34 -81 -57t-115 -23q-110 0 -186.5 79.5t-76.5 194.5z" />
<glyph horiz-adv-x="0" d="M-478 1046q0 201 138.5 339.5t338.5 138.5q201 0 339.5 -138.5t138.5 -339.5q0 -200 -138.5 -338.5t-339.5 -138.5q-200 0 -338.5 138.5t-138.5 338.5zM-413 1046q0 -173 119.5 -292.5t292.5 -119.5t293 119.5t120 292.5t-120 293t-293 120t-292.5 -120t-119.5 -293z" />
<glyph horiz-adv-x="0" d="M-160 807v506h187q62 0 104.5 -42.5t42.5 -104.5t-43 -105q-20 -20 -46 -31l89 -223h-91l-84 212h-84v-212h-75zM-85 1094h112q30 0 51 21t21 51t-21 51t-51 21h-112v-72v-72z" />
<glyph d="M310 1356v65l225 64v-736h145v-68h-181h-181v68h145v636z" />
<glyph d="M251 883v27v27l291 538h52h53v-525h105v-67h-105v-202h-72v202h-324zM326 950h249v475z" />
<glyph d="M310 1356v65l225 64v-736h145v-68h-181h-181v68h145v636z" />
<glyph d="M295 681v29v29q-7 94 43.5 167t203.5 188q83 62 112 104t29 100q0 56 -36.5 87.5t-100.5 31.5q-69 0 -110 -38t-43 -102h-72q3 96 65 152t165 56q96 0 150 -49t54 -136q0 -69 -48.5 -138.5t-148.5 -144.5q-133 -101 -165 -146q-29 -41 -26 -121h375v-69h-447z" />
<glyph d="M236 899h71q-5 -74 42.5 -117t133.5 -43q83 0 130 43.5t47 120.5q0 81 -45 123t-132 42h-39v68q86 -4 134 35.5t48 112.5q0 63 -38.5 98t-106.5 35q-67 0 -105.5 -32t-37.5 -87h-72q-1 86 57 136.5t158 50.5q102 0 159.5 -51.5t57.5 -143.5q0 -96 -58 -148 q-24 -22 -57 -33q52 -13 86 -45q63 -57 63 -168q0 -106 -65.5 -165.5t-182.5 -59.5q-121 0 -187.5 61.5t-60.5 166.5z" />
<glyph d="M251 883v27v27l291 538h52h53v-525h105v-67h-105v-202h-72v202h-324zM326 950h249v475z" />
<glyph horiz-adv-x="0" d="M-187 242l68 87l319 -271l-45 -58z" />
<glyph horiz-adv-x="0" d="M-127 56l318 272l67 -87l-342 -241z" />
<glyph horiz-adv-x="0" d="M-331 46l332 292h-1h-1l332 -292l-45 -46l-286 215l-286 -215z" />
<glyph horiz-adv-x="0" d="M-368 74q48 97 96 137t117 40q33 0 80 -18.5t97 -50.5q52 -34 84 -47t64 -13q37 0 70.5 32.5t60.5 94.5l67 -25q-33 -92 -86 -137.5t-127 -45.5q-31 0 -68 15.5t-109 57.5q-48 29 -81.5 42.5t-53.5 13.5q-43 0 -79.5 -31.5t-66.5 -95.5z" />
<glyph horiz-adv-x="0" d="M-233 127q0 34 23 57t57 23t57 -23t23 -57q0 -33 -23 -56t-57 -23t-57 23t-23 56zM74 127q0 34 23 57t57 23t57 -23t23 -57q0 -33 -23 -56t-57 -23t-57 23t-23 56z" />
<glyph horiz-adv-x="0" d="M-165 165q0 70 48 118t117 48q70 0 118 -48t48 -118q0 -69 -48 -117t-118 -48q-69 0 -117 48t-48 117zM-95 165q0 -40 27.5 -67.5t67.5 -27.5t68 27.5t28 67.5t-28 68t-68 28t-67.5 -28t-27.5 -68z" />
<glyph horiz-adv-x="0" d="M-146 -391l16 77q43 -16 66.5 -21t51.5 -5q56 0 89 20t33 54q0 29 -24.5 47t-67.5 18t-68 -4.5t-40 -14.5l50 220h67l-30 -125l46 1q72 0 117.5 -38.5t45.5 -99.5q0 -71 -60 -113t-162 -42q-25 0 -54.5 6t-75.5 20z" />
<glyph horiz-adv-x="0" d="M-232 242l68 87l319 -271l-45 -58z" />
<glyph horiz-adv-x="0" d="M-154 56l318 272l67 -87l-342 -241z" />
<glyph horiz-adv-x="0" d="M-330 46l331 292h-1h-1l331 -292l-45 -46l-285 215l-285 -215z" />
<glyph horiz-adv-x="0" d="M-368 74q48 97 96 137t117 40q33 0 80 -18.5t97 -50.5q52 -34 84 -47t64 -13q37 0 70.5 32.5t60.5 94.5l67 -25q-33 -92 -86 -137.5t-127 -45.5q-31 0 -68 15.5t-109 57.5q-48 29 -81.5 42.5t-53.5 13.5q-43 0 -79.5 -31.5t-66.5 -95.5z" />
<glyph horiz-adv-x="0" d="M-233 127q0 34 23 57t57 23t57 -23t23 -57q0 -33 -23 -56t-57 -23t-57 23t-23 56zM74 127q0 34 23 57t57 23t57 -23t23 -57q0 -33 -23 -56t-57 -23t-57 23t-23 56z" />
<glyph horiz-adv-x="0" d="M-165 165q0 70 48 118t117 48q70 0 118 -48t48 -118q0 -69 -48 -117t-118 -48q-69 0 -117 48t-48 117zM-95 165q0 -40 27.5 -67.5t67.5 -27.5t68 27.5t28 67.5t-28 68t-68 28t-67.5 -28t-27.5 -68z" />
<glyph horiz-adv-x="0" d="M-147 -391l17 74q49 -14 73 -19t47 -5q57 0 90.5 21.5t33.5 57.5q0 29 -24.5 46.5t-66 17.5t-66.5 -4t-41 -13l43 215h69l-27 -126l45 2q72 0 115.5 -36.5t43.5 -95.5q0 -77 -57.5 -119t-164.5 -42q-25 0 -54 6t-76 20z" />
<glyph horiz-adv-x="0" d="M0 1299v89h393v-89h-152v-518h-89v518h-152z" />
<glyph horiz-adv-x="0" d="M0 781v607h160l112 -486l112 486h160v-607h-89v559l-129 -559h-108l-129 559v-559h-89z" />
</font>
</defs>
</svg>
